<?xml version="1.0" encoding="UTF-8"?>
<!DOCTYPE svg PUBLIC "-//W3C//DTD SVG 1.1//EN" "http://www.w3.org/Graphics/SVG/1.1/DTD/svg11.dtd">
<svg xmlns="http://www.w3.org/2000/svg" version="1.1" width="533px" height="533px" style="shape-rendering:geometricPrecision; text-rendering:geometricPrecision; image-rendering:optimizeQuality; fill-rule:evenodd; clip-rule:evenodd" xmlns:xlink="http://www.w3.org/1999/xlink">
<g><path style="opacity:1" fill="#000000" d="M -0.5,-0.5 C 177.167,-0.5 354.833,-0.5 532.5,-0.5C 532.5,177.167 532.5,354.833 532.5,532.5C 354.833,532.5 177.167,532.5 -0.5,532.5C -0.5,354.833 -0.5,177.167 -0.5,-0.5 Z"/></g>
<g><path style="opacity:1" fill="#1d68e5" d="M 7.5,7.5 C 46.5,7.5 85.5,7.5 124.5,7.5C 124.5,46.5 124.5,85.5 124.5,124.5C 85.5,124.5 46.5,124.5 7.5,124.5C 7.5,85.5 7.5,46.5 7.5,7.5 Z"/></g>
<g><path style="opacity:1" fill="#1d68e5" d="M 141.5,7.5 C 180.167,7.5 218.833,7.5 257.5,7.5C 257.5,46.5 257.5,85.5 257.5,124.5C 218.833,124.5 180.167,124.5 141.5,124.5C 141.5,85.5 141.5,46.5 141.5,7.5 Z"/></g>
<g><path style="opacity:1" fill="#1d68e5" d="M 274.5,7.5 C 313.167,7.5 351.833,7.5 390.5,7.5C 390.5,46.5 390.5,85.5 390.5,124.5C 351.833,124.5 313.167,124.5 274.5,124.5C 274.5,85.5 274.5,46.5 274.5,7.5 Z"/></g>
<g><path style="opacity:1" fill="#feff00" d="M 407.5,7.5 C 446.5,7.5 485.5,7.5 524.5,7.5C 524.5,46.5 524.5,85.5 524.5,124.5C 485.5,124.5 446.5,124.5 407.5,124.5C 407.5,85.5 407.5,46.5 407.5,7.5 Z"/></g>
<g><path style="opacity:1" fill="#1d68e5" d="M 7.5,141.5 C 46.5,141.5 85.5,141.5 124.5,141.5C 124.5,180.167 124.5,218.833 124.5,257.5C 85.5,257.5 46.5,257.5 7.5,257.5C 7.5,218.833 7.5,180.167 7.5,141.5 Z"/></g>
<g><path style="opacity:1" fill="#feff00" d="M 141.5,141.5 C 180.167,141.5 218.833,141.5 257.5,141.5C 257.5,180.167 257.5,218.833 257.5,257.5C 218.833,257.5 180.167,257.5 141.5,257.5C 141.5,218.833 141.5,180.167 141.5,141.5 Z"/></g>
<g><path style="opacity:1" fill="#feff00" d="M 274.5,141.5 C 313.167,141.5 351.833,141.5 390.5,141.5C 390.5,180.167 390.5,218.833 390.5,257.5C 351.833,257.5 313.167,257.5 274.5,257.5C 274.5,218.833 274.5,180.167 274.5,141.5 Z"/></g>
<g><path style="opacity:1" fill="#feff00" d="M 407.5,141.5 C 446.5,141.5 485.5,141.5 524.5,141.5C 524.5,180.167 524.5,218.833 524.5,257.5C 485.5,257.5 446.5,257.5 407.5,257.5C 407.5,218.833 407.5,180.167 407.5,141.5 Z"/></g>
<g><path style="opacity:1" fill="#1d68e5" d="M 7.5,274.5 C 46.5,274.5 85.5,274.5 124.5,274.5C 124.5,313.167 124.5,351.833 124.5,390.5C 85.5,390.5 46.5,390.5 7.5,390.5C 7.5,351.833 7.5,313.167 7.5,274.5 Z"/></g>
<g><path style="opacity:1" fill="#1d68e5" d="M 141.5,274.5 C 180.167,274.5 218.833,274.5 257.5,274.5C 257.5,313.167 257.5,351.833 257.5,390.5C 218.833,390.5 180.167,390.5 141.5,390.5C 141.5,351.833 141.5,313.167 141.5,274.5 Z"/></g>
<g><path style="opacity:1" fill="#00ff00" d="M 274.5,274.5 C 313.167,274.5 351.833,274.5 390.5,274.5C 390.5,313.167 390.5,351.833 390.5,390.5C 351.833,390.5 313.167,390.5 274.5,390.5C 274.5,351.833 274.5,313.167 274.5,274.5 Z"/></g>
<g><path style="opacity:1" fill="#00ff00" d="M 407.5,274.5 C 446.5,274.5 485.5,274.5 524.5,274.5C 524.5,313.167 524.5,351.833 524.5,390.5C 485.5,390.5 446.5,390.5 407.5,390.5C 407.5,351.833 407.5,313.167 407.5,274.5 Z"/></g>
<g><path style="opacity:1" fill="#1d68e5" d="M 7.5,407.5 C 46.5,407.5 85.5,407.5 124.5,407.5C 124.5,446.5 124.5,485.5 124.5,524.5C 85.5,524.5 46.5,524.5 7.5,524.5C 7.5,485.5 7.5,446.5 7.5,407.5 Z"/></g>
<g><path style="opacity:1" fill="#fe0000" d="M 141.5,407.5 C 180.167,407.5 218.833,407.5 257.5,407.5C 257.5,446.5 257.5,485.5 257.5,524.5C 218.833,524.5 180.167,524.5 141.5,524.5C 141.5,485.5 141.5,446.5 141.5,407.5 Z"/></g>
<g><path style="opacity:1" fill="#fe0000" d="M 274.5,407.5 C 313.167,407.5 351.833,407.5 390.5,407.5C 390.5,446.5 390.5,485.5 390.5,524.5C 351.833,524.5 313.167,524.5 274.5,524.5C 274.5,485.5 274.5,446.5 274.5,407.5 Z"/></g>
<g><path style="opacity:1" fill="#fe0000" d="M 407.5,407.5 C 446.5,407.5 485.5,407.5 524.5,407.5C 524.5,446.5 524.5,485.5 524.5,524.5C 485.5,524.5 446.5,524.5 407.5,524.5C 407.5,485.5 407.5,446.5 407.5,407.5 Z"/></g>
</svg>
