<?xml version="1.0" encoding="UTF-8"?>
<!DOCTYPE svg PUBLIC "-//W3C//DTD SVG 1.1//EN" "http://www.w3.org/Graphics/SVG/1.1/DTD/svg11.dtd">
<svg xmlns="http://www.w3.org/2000/svg" version="1.1" width="533px" height="533px" style="shape-rendering:geometricPrecision; text-rendering:geometricPrecision; image-rendering:optimizeQuality; fill-rule:evenodd; clip-rule:evenodd" xmlns:xlink="http://www.w3.org/1999/xlink">
<g><path style="opacity:1" fill="#000000" d="M -0.5,-0.5 C 177.167,-0.5 354.833,-0.5 532.5,-0.5C 532.5,177.167 532.5,354.833 532.5,532.5C 354.833,532.5 177.167,532.5 -0.5,532.5C -0.5,354.833 -0.5,177.167 -0.5,-0.5 Z"/></g>
<g><path style="opacity:1" fill="#1d68e5" d="M 7.5,7.5 C 24.1667,7.5 40.8333,7.5 57.5,7.5C 57.5,24.1667 57.5,40.8333 57.5,57.5C 40.8333,57.5 24.1667,57.5 7.5,57.5C 7.5,40.8333 7.5,24.1667 7.5,7.5 Z"/></g>
<g><path style="opacity:1" fill="#1d68e5" d="M 66.5,7.5 C 82.8333,7.5 99.1667,7.5 115.5,7.5C 115.5,24.1667 115.5,40.8333 115.5,57.5C 99.1667,57.5 82.8333,57.5 66.5,57.5C 66.5,40.8333 66.5,24.1667 66.5,7.5 Z"/></g>
<g><path style="opacity:1" fill="#1d68e5" d="M 124.5,7.5 C 141.167,7.5 157.833,7.5 174.5,7.5C 174.5,24.1667 174.5,40.8333 174.5,57.5C 157.833,57.5 141.167,57.5 124.5,57.5C 124.5,40.8333 124.5,24.1667 124.5,7.5 Z"/></g>
<g><path style="opacity:1" fill="#1d68e5" d="M 181.5,7.5 C 198.5,7.5 215.5,7.5 232.5,7.5C 232.5,24.1667 232.5,40.8333 232.5,57.5C 215.5,57.5 198.5,57.5 181.5,57.5C 181.5,40.8333 181.5,24.1667 181.5,7.5 Z"/></g>
<g><path style="opacity:1" fill="#1d68e5" d="M 241.5,7.5 C 257.833,7.5 274.167,7.5 290.5,7.5C 290.5,24.1667 290.5,40.8333 290.5,57.5C 274.167,57.5 257.833,57.5 241.5,57.5C 241.5,40.8333 241.5,24.1667 241.5,7.5 Z"/></g>
<g><path style="opacity:1" fill="#1d68e5" d="M 299.5,7.5 C 315.833,7.5 332.167,7.5 348.5,7.5C 348.5,24.1667 348.5,40.8333 348.5,57.5C 332.167,57.5 315.833,57.5 299.5,57.5C 299.5,40.8333 299.5,24.1667 299.5,7.5 Z"/></g>
<g><path style="opacity:1" fill="#1d68e5" d="M 357.5,7.5 C 374.167,7.5 390.833,7.5 407.5,7.5C 407.5,24.1667 407.5,40.8333 407.5,57.5C 390.833,57.5 374.167,57.5 357.5,57.5C 357.5,40.8333 357.5,24.1667 357.5,7.5 Z"/></g>
<g><path style="opacity:1" fill="#1d68e5" d="M 414.5,7.5 C 431.5,7.5 448.5,7.5 465.5,7.5C 465.5,24.1667 465.5,40.8333 465.5,57.5C 448.5,57.5 431.5,57.5 414.5,57.5C 414.5,40.8333 414.5,24.1667 414.5,7.5 Z"/></g>
<g><path style="opacity:1" fill="#1d68e5" d="M 474.5,7.5 C 491.167,7.5 507.833,7.5 524.5,7.5C 524.5,24.1667 524.5,40.8333 524.5,57.5C 507.833,57.5 491.167,57.5 474.5,57.5C 474.5,40.8333 474.5,24.1667 474.5,7.5 Z"/></g>
<g><path style="opacity:1" fill="#1d68e5" d="M 7.5,66.5 C 24.1667,66.5 40.8333,66.5 57.5,66.5C 57.5,82.8333 57.5,99.1667 57.5,115.5C 40.8333,115.5 24.1667,115.5 7.5,115.5C 7.5,99.1667 7.5,82.8333 7.5,66.5 Z"/></g>
<g><path style="opacity:1" fill="#1d68e5" d="M 66.5,66.5 C 82.8333,66.5 99.1667,66.5 115.5,66.5C 115.5,82.8333 115.5,99.1667 115.5,115.5C 99.1667,115.5 82.8333,115.5 66.5,115.5C 66.5,99.1667 66.5,82.8333 66.5,66.5 Z"/></g>
<g><path style="opacity:1" fill="#1d68e5" d="M 124.5,66.5 C 141.167,66.5 157.833,66.5 174.5,66.5C 174.5,82.8333 174.5,99.1667 174.5,115.5C 157.833,115.5 141.167,115.5 124.5,115.5C 124.5,99.1667 124.5,82.8333 124.5,66.5 Z"/></g>
<g><path style="opacity:1" fill="#1d68e5" d="M 181.5,66.5 C 198.5,66.5 215.5,66.5 232.5,66.5C 232.5,82.8333 232.5,99.1667 232.5,115.5C 215.5,115.5 198.5,115.5 181.5,115.5C 181.5,99.1667 181.5,82.8333 181.5,66.5 Z"/></g>
<g><path style="opacity:1" fill="#1d68e5" d="M 241.5,66.5 C 257.833,66.5 274.167,66.5 290.5,66.5C 290.5,82.8333 290.5,99.1667 290.5,115.5C 274.167,115.5 257.833,115.5 241.5,115.5C 241.5,99.1667 241.5,82.8333 241.5,66.5 Z"/></g>
<g><path style="opacity:1" fill="#1d68e5" d="M 299.5,66.5 C 315.833,66.5 332.167,66.5 348.5,66.5C 348.5,82.8333 348.5,99.1667 348.5,115.5C 332.167,115.5 315.833,115.5 299.5,115.5C 299.5,99.1667 299.5,82.8333 299.5,66.5 Z"/></g>
<g><path style="opacity:1" fill="#1d68e5" d="M 357.5,66.5 C 374.167,66.5 390.833,66.5 407.5,66.5C 407.5,82.8333 407.5,99.1667 407.5,115.5C 390.833,115.5 374.167,115.5 357.5,115.5C 357.5,99.1667 357.5,82.8333 357.5,66.5 Z"/></g>
<g><path style="opacity:1" fill="#1d68e5" d="M 414.5,66.5 C 431.5,66.5 448.5,66.5 465.5,66.5C 465.5,82.8333 465.5,99.1667 465.5,115.5C 448.5,115.5 431.5,115.5 414.5,115.5C 414.5,99.1667 414.5,82.8333 414.5,66.5 Z"/></g>
<g><path style="opacity:1" fill="#1d68e5" d="M 474.5,66.5 C 491.167,66.5 507.833,66.5 524.5,66.5C 524.5,82.8333 524.5,99.1667 524.5,115.5C 507.833,115.5 491.167,115.5 474.5,115.5C 474.5,99.1667 474.5,82.8333 474.5,66.5 Z"/></g>
<g><path style="opacity:1" fill="#1d68e5" d="M 7.5,124.5 C 24.1667,124.5 40.8333,124.5 57.5,124.5C 57.5,141.167 57.5,157.833 57.5,174.5C 40.8333,174.5 24.1667,174.5 7.5,174.5C 7.5,157.833 7.5,141.167 7.5,124.5 Z"/></g>
<g><path style="opacity:1" fill="#1d68e5" d="M 66.5,124.5 C 82.8333,124.5 99.1667,124.5 115.5,124.5C 115.5,141.167 115.5,157.833 115.5,174.5C 99.1667,174.5 82.8333,174.5 66.5,174.5C 66.5,157.833 66.5,141.167 66.5,124.5 Z"/></g>
<g><path style="opacity:1" fill="#1d68e5" d="M 124.5,124.5 C 141.167,124.5 157.833,124.5 174.5,124.5C 174.5,141.167 174.5,157.833 174.5,174.5C 157.833,174.5 141.167,174.5 124.5,174.5C 124.5,157.833 124.5,141.167 124.5,124.5 Z"/></g>
<g><path style="opacity:1" fill="#1d68e5" d="M 181.5,124.5 C 198.5,124.5 215.5,124.5 232.5,124.5C 232.5,141.167 232.5,157.833 232.5,174.5C 215.5,174.5 198.5,174.5 181.5,174.5C 181.5,157.833 181.5,141.167 181.5,124.5 Z"/></g>
<g><path style="opacity:1" fill="#1d68e5" d="M 241.5,124.5 C 257.833,124.5 274.167,124.5 290.5,124.5C 290.5,141.167 290.5,157.833 290.5,174.5C 274.167,174.5 257.833,174.5 241.5,174.5C 241.5,157.833 241.5,141.167 241.5,124.5 Z"/></g>
<g><path style="opacity:1" fill="#1d68e5" d="M 299.5,124.5 C 315.833,124.5 332.167,124.5 348.5,124.5C 348.5,141.167 348.5,157.833 348.5,174.5C 332.167,174.5 315.833,174.5 299.5,174.5C 299.5,157.833 299.5,141.167 299.5,124.5 Z"/></g>
<g><path style="opacity:1" fill="#1d68e5" d="M 357.5,124.5 C 374.167,124.5 390.833,124.5 407.5,124.5C 407.5,141.167 407.5,157.833 407.5,174.5C 390.833,174.5 374.167,174.5 357.5,174.5C 357.5,157.833 357.5,141.167 357.5,124.5 Z"/></g>
<g><path style="opacity:1" fill="#1d68e5" d="M 414.5,124.5 C 431.5,124.5 448.5,124.5 465.5,124.5C 465.5,141.167 465.5,157.833 465.5,174.5C 448.5,174.5 431.5,174.5 414.5,174.5C 414.5,157.833 414.5,141.167 414.5,124.5 Z"/></g>
<g><path style="opacity:1" fill="#1d68e5" d="M 474.5,124.5 C 491.167,124.5 507.833,124.5 524.5,124.5C 524.5,141.167 524.5,157.833 524.5,174.5C 507.833,174.5 491.167,174.5 474.5,174.5C 474.5,157.833 474.5,141.167 474.5,124.5 Z"/></g>
<g><path style="opacity:1" fill="#1d68e5" d="M 7.5,181.5 C 24.1667,181.5 40.8333,181.5 57.5,181.5C 57.5,198.5 57.5,215.5 57.5,232.5C 40.8333,232.5 24.1667,232.5 7.5,232.5C 7.5,215.5 7.5,198.5 7.5,181.5 Z"/></g>
<g><path style="opacity:1" fill="#1d68e5" d="M 66.5,181.5 C 82.8333,181.5 99.1667,181.5 115.5,181.5C 115.5,198.5 115.5,215.5 115.5,232.5C 99.1667,232.5 82.8333,232.5 66.5,232.5C 66.5,215.5 66.5,198.5 66.5,181.5 Z"/></g>
<g><path style="opacity:1" fill="#1d68e5" d="M 124.5,181.5 C 141.167,181.5 157.833,181.5 174.5,181.5C 174.5,198.5 174.5,215.5 174.5,232.5C 157.833,232.5 141.167,232.5 124.5,232.5C 124.5,215.5 124.5,198.5 124.5,181.5 Z"/></g>
<g><path style="opacity:1" fill="#1d68e5" d="M 181.5,181.5 C 198.5,181.5 215.5,181.5 232.5,181.5C 232.5,198.5 232.5,215.5 232.5,232.5C 215.5,232.5 198.5,232.5 181.5,232.5C 181.5,215.5 181.5,198.5 181.5,181.5 Z"/></g>
<g><path style="opacity:1" fill="#1d68e5" d="M 241.5,181.5 C 257.833,181.5 274.167,181.5 290.5,181.5C 290.5,198.5 290.5,215.5 290.5,232.5C 274.167,232.5 257.833,232.5 241.5,232.5C 241.5,215.5 241.5,198.5 241.5,181.5 Z"/></g>
<g><path style="opacity:1" fill="#1d68e5" d="M 299.5,181.5 C 315.833,181.5 332.167,181.5 348.5,181.5C 348.5,198.5 348.5,215.5 348.5,232.5C 332.167,232.5 315.833,232.5 299.5,232.5C 299.5,215.5 299.5,198.5 299.5,181.5 Z"/></g>
<g><path style="opacity:1" fill="#feff00" d="M 357.5,181.5 C 374.167,181.5 390.833,181.5 407.5,181.5C 407.5,198.5 407.5,215.5 407.5,232.5C 390.833,232.5 374.167,232.5 357.5,232.5C 357.5,215.5 357.5,198.5 357.5,181.5 Z"/></g>
<g><path style="opacity:1" fill="#1d68e5" d="M 414.5,181.5 C 431.5,181.5 448.5,181.5 465.5,181.5C 465.5,198.5 465.5,215.5 465.5,232.5C 448.5,232.5 431.5,232.5 414.5,232.5C 414.5,215.5 414.5,198.5 414.5,181.5 Z"/></g>
<g><path style="opacity:1" fill="#1d68e5" d="M 474.5,181.5 C 491.167,181.5 507.833,181.5 524.5,181.5C 524.5,198.5 524.5,215.5 524.5,232.5C 507.833,232.5 491.167,232.5 474.5,232.5C 474.5,215.5 474.5,198.5 474.5,181.5 Z"/></g>
<g><path style="opacity:1" fill="#1d68e5" d="M 7.5,241.5 C 24.1667,241.5 40.8333,241.5 57.5,241.5C 57.5,257.833 57.5,274.167 57.5,290.5C 40.8333,290.5 24.1667,290.5 7.5,290.5C 7.5,274.167 7.5,257.833 7.5,241.5 Z"/></g>
<g><path style="opacity:1" fill="#1d68e5" d="M 66.5,241.5 C 82.8333,241.5 99.1667,241.5 115.5,241.5C 115.5,257.833 115.5,274.167 115.5,290.5C 99.1667,290.5 82.8333,290.5 66.5,290.5C 66.5,274.167 66.5,257.833 66.5,241.5 Z"/></g>
<g><path style="opacity:1" fill="#1d68e5" d="M 124.5,241.5 C 141.167,241.5 157.833,241.5 174.5,241.5C 174.5,257.833 174.5,274.167 174.5,290.5C 157.833,290.5 141.167,290.5 124.5,290.5C 124.5,274.167 124.5,257.833 124.5,241.5 Z"/></g>
<g><path style="opacity:1" fill="#1d68e5" d="M 181.5,241.5 C 198.5,241.5 215.5,241.5 232.5,241.5C 232.5,257.833 232.5,274.167 232.5,290.5C 215.5,290.5 198.5,290.5 181.5,290.5C 181.5,274.167 181.5,257.833 181.5,241.5 Z"/></g>
<g><path style="opacity:1" fill="#feff00" d="M 241.5,241.5 C 257.833,241.5 274.167,241.5 290.5,241.5C 290.5,257.833 290.5,274.167 290.5,290.5C 274.167,290.5 257.833,290.5 241.5,290.5C 241.5,274.167 241.5,257.833 241.5,241.5 Z"/></g>
<g><path style="opacity:1" fill="#feff00" d="M 299.5,241.5 C 315.833,241.5 332.167,241.5 348.5,241.5C 348.5,257.833 348.5,274.167 348.5,290.5C 332.167,290.5 315.833,290.5 299.5,290.5C 299.5,274.167 299.5,257.833 299.5,241.5 Z"/></g>
<g><path style="opacity:1" fill="#feff00" d="M 357.5,241.5 C 374.167,241.5 390.833,241.5 407.5,241.5C 407.5,257.833 407.5,274.167 407.5,290.5C 390.833,290.5 374.167,290.5 357.5,290.5C 357.5,274.167 357.5,257.833 357.5,241.5 Z"/></g>
<g><path style="opacity:1" fill="#1d68e5" d="M 414.5,241.5 C 431.5,241.5 448.5,241.5 465.5,241.5C 465.5,257.833 465.5,274.167 465.5,290.5C 448.5,290.5 431.5,290.5 414.5,290.5C 414.5,274.167 414.5,257.833 414.5,241.5 Z"/></g>
<g><path style="opacity:1" fill="#1d68e5" d="M 474.5,241.5 C 491.167,241.5 507.833,241.5 524.5,241.5C 524.5,257.833 524.5,274.167 524.5,290.5C 507.833,290.5 491.167,290.5 474.5,290.5C 474.5,274.167 474.5,257.833 474.5,241.5 Z"/></g>
<g><path style="opacity:1" fill="#1d68e5" d="M 7.5,299.5 C 24.1667,299.5 40.8333,299.5 57.5,299.5C 57.5,315.833 57.5,332.167 57.5,348.5C 40.8333,348.5 24.1667,348.5 7.5,348.5C 7.5,332.167 7.5,315.833 7.5,299.5 Z"/></g>
<g><path style="opacity:1" fill="#1d68e5" d="M 66.5,299.5 C 82.8333,299.5 99.1667,299.5 115.5,299.5C 115.5,315.833 115.5,332.167 115.5,348.5C 99.1667,348.5 82.8333,348.5 66.5,348.5C 66.5,332.167 66.5,315.833 66.5,299.5 Z"/></g>
<g><path style="opacity:1" fill="#1d68e5" d="M 124.5,299.5 C 141.167,299.5 157.833,299.5 174.5,299.5C 174.5,315.833 174.5,332.167 174.5,348.5C 157.833,348.5 141.167,348.5 124.5,348.5C 124.5,332.167 124.5,315.833 124.5,299.5 Z"/></g>
<g><path style="opacity:1" fill="#1d68e5" d="M 181.5,299.5 C 198.5,299.5 215.5,299.5 232.5,299.5C 232.5,315.833 232.5,332.167 232.5,348.5C 215.5,348.5 198.5,348.5 181.5,348.5C 181.5,332.167 181.5,315.833 181.5,299.5 Z"/></g>
<g><path style="opacity:1" fill="#1d68e5" d="M 241.5,299.5 C 257.833,299.5 274.167,299.5 290.5,299.5C 290.5,315.833 290.5,332.167 290.5,348.5C 274.167,348.5 257.833,348.5 241.5,348.5C 241.5,332.167 241.5,315.833 241.5,299.5 Z"/></g>
<g><path style="opacity:1" fill="#00ff00" d="M 299.5,299.5 C 315.833,299.5 332.167,299.5 348.5,299.5C 348.5,315.833 348.5,332.167 348.5,348.5C 332.167,348.5 315.833,348.5 299.5,348.5C 299.5,332.167 299.5,315.833 299.5,299.5 Z"/></g>
<g><path style="opacity:1" fill="#00ff00" d="M 357.5,299.5 C 374.167,299.5 390.833,299.5 407.5,299.5C 407.5,315.833 407.5,332.167 407.5,348.5C 390.833,348.5 374.167,348.5 357.5,348.5C 357.5,332.167 357.5,315.833 357.5,299.5 Z"/></g>
<g><path style="opacity:1" fill="#1d68e5" d="M 414.5,299.5 C 431.5,299.5 448.5,299.5 465.5,299.5C 465.5,315.833 465.5,332.167 465.5,348.5C 448.5,348.5 431.5,348.5 414.5,348.5C 414.5,332.167 414.5,315.833 414.5,299.5 Z"/></g>
<g><path style="opacity:1" fill="#1d68e5" d="M 474.5,299.5 C 491.167,299.5 507.833,299.5 524.5,299.5C 524.5,315.833 524.5,332.167 524.5,348.5C 507.833,348.5 491.167,348.5 474.5,348.5C 474.5,332.167 474.5,315.833 474.5,299.5 Z"/></g>
<g><path style="opacity:1" fill="#1d68e5" d="M 7.5,357.5 C 24.1667,357.5 40.8333,357.5 57.5,357.5C 57.5,374.167 57.5,390.833 57.5,407.5C 40.8333,407.5 24.1667,407.5 7.5,407.5C 7.5,390.833 7.5,374.167 7.5,357.5 Z"/></g>
<g><path style="opacity:1" fill="#1d68e5" d="M 66.5,357.5 C 82.8333,357.5 99.1667,357.5 115.5,357.5C 115.5,374.167 115.5,390.833 115.5,407.5C 99.1667,407.5 82.8333,407.5 66.5,407.5C 66.5,390.833 66.5,374.167 66.5,357.5 Z"/></g>
<g><path style="opacity:1" fill="#1d68e5" d="M 124.5,357.5 C 141.167,357.5 157.833,357.5 174.5,357.5C 174.5,374.167 174.5,390.833 174.5,407.5C 157.833,407.5 141.167,407.5 124.5,407.5C 124.5,390.833 124.5,374.167 124.5,357.5 Z"/></g>
<g><path style="opacity:1" fill="#1d68e5" d="M 181.5,357.5 C 198.5,357.5 215.5,357.5 232.5,357.5C 232.5,374.167 232.5,390.833 232.5,407.5C 215.5,407.5 198.5,407.5 181.5,407.5C 181.5,390.833 181.5,374.167 181.5,357.5 Z"/></g>
<g><path style="opacity:1" fill="#fe0000" d="M 241.5,357.5 C 257.833,357.5 274.167,357.5 290.5,357.5C 290.5,374.167 290.5,390.833 290.5,407.5C 274.167,407.5 257.833,407.5 241.5,407.5C 241.5,390.833 241.5,374.167 241.5,357.5 Z"/></g>
<g><path style="opacity:1" fill="#fe0000" d="M 299.5,357.5 C 315.833,357.5 332.167,357.5 348.5,357.5C 348.5,374.167 348.5,390.833 348.5,407.5C 332.167,407.5 315.833,407.5 299.5,407.5C 299.5,390.833 299.5,374.167 299.5,357.5 Z"/></g>
<g><path style="opacity:1" fill="#fe0000" d="M 357.5,357.5 C 374.167,357.5 390.833,357.5 407.5,357.5C 407.5,374.167 407.5,390.833 407.5,407.5C 390.833,407.5 374.167,407.5 357.5,407.5C 357.5,390.833 357.5,374.167 357.5,357.5 Z"/></g>
<g><path style="opacity:1" fill="#1d68e5" d="M 414.5,357.5 C 431.5,357.5 448.5,357.5 465.5,357.5C 465.5,374.167 465.5,390.833 465.5,407.5C 448.5,407.5 431.5,407.5 414.5,407.5C 414.5,390.833 414.5,374.167 414.5,357.5 Z"/></g>
<g><path style="opacity:1" fill="#1d68e5" d="M 474.5,357.5 C 491.167,357.5 507.833,357.5 524.5,357.5C 524.5,374.167 524.5,390.833 524.5,407.5C 507.833,407.5 491.167,407.5 474.5,407.5C 474.5,390.833 474.5,374.167 474.5,357.5 Z"/></g>
<g><path style="opacity:1" fill="#1d68e5" d="M 7.5,414.5 C 24.1667,414.5 40.8333,414.5 57.5,414.5C 57.5,431.5 57.5,448.5 57.5,465.5C 40.8333,465.5 24.1667,465.5 7.5,465.5C 7.5,448.5 7.5,431.5 7.5,414.5 Z"/></g>
<g><path style="opacity:1" fill="#1d68e5" d="M 66.5,414.5 C 82.8333,414.5 99.1667,414.5 115.5,414.5C 115.5,431.5 115.5,448.5 115.5,465.5C 99.1667,465.5 82.8333,465.5 66.5,465.5C 66.5,448.5 66.5,431.5 66.5,414.5 Z"/></g>
<g><path style="opacity:1" fill="#1d68e5" d="M 124.5,414.5 C 141.167,414.5 157.833,414.5 174.5,414.5C 174.5,431.5 174.5,448.5 174.5,465.5C 157.833,465.5 141.167,465.5 124.5,465.5C 124.5,448.5 124.5,431.5 124.5,414.5 Z"/></g>
<g><path style="opacity:1" fill="#1d68e5" d="M 181.5,414.5 C 198.5,414.5 215.5,414.5 232.5,414.5C 232.5,431.5 232.5,448.5 232.5,465.5C 215.5,465.5 198.5,465.5 181.5,465.5C 181.5,448.5 181.5,431.5 181.5,414.5 Z"/></g>
<g><path style="opacity:1" fill="#1d68e5" d="M 241.5,414.5 C 257.833,414.5 274.167,414.5 290.5,414.5C 290.5,431.5 290.5,448.5 290.5,465.5C 274.167,465.5 257.833,465.5 241.5,465.5C 241.5,448.5 241.5,431.5 241.5,414.5 Z"/></g>
<g><path style="opacity:1" fill="#1d68e5" d="M 299.5,414.5 C 315.833,414.5 332.167,414.5 348.5,414.5C 348.5,431.5 348.5,448.5 348.5,465.5C 332.167,465.5 315.833,465.5 299.5,465.5C 299.5,448.5 299.5,431.5 299.5,414.5 Z"/></g>
<g><path style="opacity:1" fill="#1d68e5" d="M 357.5,414.5 C 374.167,414.5 390.833,414.5 407.5,414.5C 407.5,431.5 407.5,448.5 407.5,465.5C 390.833,465.5 374.167,465.5 357.5,465.5C 357.5,448.5 357.5,431.5 357.5,414.5 Z"/></g>
<g><path style="opacity:1" fill="#1d68e5" d="M 414.5,414.5 C 431.5,414.5 448.5,414.5 465.5,414.5C 465.5,431.5 465.5,448.5 465.5,465.5C 448.5,465.5 431.5,465.5 414.5,465.5C 414.5,448.5 414.5,431.5 414.5,414.5 Z"/></g>
<g><path style="opacity:1" fill="#1d68e5" d="M 474.5,414.5 C 491.167,414.5 507.833,414.5 524.5,414.5C 524.5,431.5 524.5,448.5 524.5,465.5C 507.833,465.5 491.167,465.5 474.5,465.5C 474.5,448.5 474.5,431.5 474.5,414.5 Z"/></g>
<g><path style="opacity:1" fill="#1d68e5" d="M 7.5,474.5 C 24.1667,474.5 40.8333,474.5 57.5,474.5C 57.5,491.167 57.5,507.833 57.5,524.5C 40.8333,524.5 24.1667,524.5 7.5,524.5C 7.5,507.833 7.5,491.167 7.5,474.5 Z"/></g>
<g><path style="opacity:1" fill="#1d68e5" d="M 66.5,474.5 C 82.8333,474.5 99.1667,474.5 115.5,474.5C 115.5,491.167 115.5,507.833 115.5,524.5C 99.1667,524.5 82.8333,524.5 66.5,524.5C 66.5,507.833 66.5,491.167 66.5,474.5 Z"/></g>
<g><path style="opacity:1" fill="#1d68e5" d="M 124.5,474.5 C 141.167,474.5 157.833,474.5 174.5,474.5C 174.5,491.167 174.5,507.833 174.5,524.5C 157.833,524.5 141.167,524.5 124.5,524.5C 124.5,507.833 124.5,491.167 124.5,474.5 Z"/></g>
<g><path style="opacity:1" fill="#1d68e5" d="M 181.5,474.5 C 198.5,474.5 215.5,474.5 232.5,474.5C 232.5,491.167 232.5,507.833 232.5,524.5C 215.5,524.5 198.5,524.5 181.5,524.5C 181.5,507.833 181.5,491.167 181.5,474.5 Z"/></g>
<g><path style="opacity:1" fill="#1d68e5" d="M 241.5,474.5 C 257.833,474.5 274.167,474.5 290.5,474.5C 290.5,491.167 290.5,507.833 290.5,524.5C 274.167,524.5 257.833,524.5 241.5,524.5C 241.5,507.833 241.5,491.167 241.5,474.5 Z"/></g>
<g><path style="opacity:1" fill="#1d68e5" d="M 299.5,474.5 C 315.833,474.5 332.167,474.5 348.5,474.5C 348.5,491.167 348.5,507.833 348.5,524.5C 332.167,524.5 315.833,524.5 299.5,524.5C 299.5,507.833 299.5,491.167 299.5,474.5 Z"/></g>
<g><path style="opacity:1" fill="#1d68e5" d="M 357.5,474.5 C 374.167,474.5 390.833,474.5 407.5,474.5C 407.5,491.167 407.5,507.833 407.5,524.5C 390.833,524.5 374.167,524.5 357.5,524.5C 357.5,507.833 357.5,491.167 357.5,474.5 Z"/></g>
<g><path style="opacity:1" fill="#1d68e5" d="M 414.5,474.5 C 431.5,474.5 448.5,474.5 465.5,474.5C 465.5,491.167 465.5,507.833 465.5,524.5C 448.5,524.5 431.5,524.5 414.5,524.5C 414.5,507.833 414.5,491.167 414.5,474.5 Z"/></g>
<g><path style="opacity:1" fill="#1d68e5" d="M 474.5,474.5 C 491.167,474.5 507.833,474.5 524.5,474.5C 524.5,491.167 524.5,507.833 524.5,524.5C 507.833,524.5 491.167,524.5 474.5,524.5C 474.5,507.833 474.5,491.167 474.5,474.5 Z"/></g>
</svg>
